<?xml version="1.0" encoding="utf-8"?>
<svg xmlns="http://www.w3.org/2000/svg" viewBox="651.6062 9.1085 239.9955 192.0025" width="239.995px" height="192.002px">
  <path d="M 712.724 71.261 L 672.104 105.111 L 712.724 138.961 C 717.531 142.81 716.37 150.419 710.633 152.659 C 707.866 153.739 704.728 153.197 702.484 151.251 L 654.484 111.251 C 650.647 108.053 650.647 102.159 654.484 98.961 L 702.484 58.961 C 707.218 55.019 714.444 57.681 715.49 63.752 C 715.975 66.569 714.921 69.432 712.724 71.261 Z M 888.724 98.961 L 840.724 58.961 C 835.99 55.019 828.764 57.681 827.718 63.752 C 827.232 66.569 828.287 69.432 830.484 71.261 L 871.104 105.111 L 830.484 138.961 C 825.676 142.81 826.838 150.419 832.575 152.659 C 835.342 153.739 838.479 153.197 840.724 151.251 L 888.724 111.251 C 892.561 108.053 892.561 102.159 888.724 98.961 Z M 806.334 9.591 C 802.181 8.083 797.591 10.228 796.084 14.381 L 732.084 190.381 C 730.569 194.537 732.715 199.133 736.874 200.641 C 737.75 200.952 738.674 201.111 739.604 201.111 C 742.969 201.111 745.975 199.004 747.124 195.841 L 811.124 19.841 C 812.632 15.688 810.487 11.098 806.334 9.591 Z" style="paint-order: stroke; fill: rgb(130, 188, 79); stroke: rgb(22, 24, 29); stroke-width: 50px;"/>
</svg>