<svg width="38" height="34" viewBox="0 0 38 34" fill="none" xmlns="http://www.w3.org/2000/svg">
<path d="M14.2464 14.684L14.2403 14.689L11.4668 17L14.2353 19.3068C14.5747 19.5865 14.8582 19.9276 15.0711 20.3121L20.7102 4.80459C20.7103 4.80439 20.7104 4.8042 20.7105 4.804C20.8674 4.37213 21.1079 3.9754 21.4182 3.63644C21.7286 3.29734 22.1028 3.02271 22.5193 2.82823C22.9359 2.63376 23.3867 2.52327 23.846 2.50305C24.3051 2.48284 24.7636 2.55323 25.1955 2.71019L14.2464 14.684ZM14.2464 14.684L14.2523 14.6789C14.9571 14.0823 15.3975 13.2313 15.4776 12.3113C15.5578 11.3914 15.2711 10.4771 14.6801 9.76759C14.0891 9.05808 13.2416 8.61087 12.3224 8.5234C11.4031 8.43593 10.4865 8.71528 9.77233 9.30059L9.76598 9.30579L9.75968 9.31104L3.75995 14.3108C3.75986 14.3109 3.75977 14.311 3.75968 14.311C3.3655 14.6395 3.04835 15.0506 2.83069 15.5152C2.61298 15.9799 2.50012 16.4868 2.50012 17C2.50012 17.5132 2.61298 18.0201 2.83069 18.4848C3.04835 18.9494 3.3655 19.3605 3.75968 19.6889C3.75977 19.689 3.75986 19.6891 3.75995 19.6892L9.75479 24.6849C10.1058 24.9804 10.5115 25.2041 10.9488 25.3431C11.3891 25.4831 11.8527 25.5345 12.3129 25.4945C12.6403 25.4659 12.9614 25.3915 13.2669 25.2739L12.7105 26.804L12.7099 26.8054C12.3935 27.6776 12.4364 28.6398 12.8291 29.4804C13.221 30.3194 13.9295 30.9689 14.7993 31.2866M14.2464 14.684L14.7993 31.2866M14.7993 31.2866C15.1842 31.4281 15.5911 31.5004 16.0012 31.5M14.7993 31.2866L27.2896 7.19602L26.7332 8.72605C27.0387 8.60845 27.3598 8.53403 27.6871 8.50551C28.1474 8.46543 28.611 8.51685 29.0513 8.65683C29.4885 8.79584 29.8941 9.01945 30.245 9.3149L36.2401 14.3108C36.2402 14.3109 36.2403 14.311 36.2404 14.311C36.6346 14.6395 36.9517 15.0506 37.1694 15.5152C37.3871 15.9799 37.5 16.4868 37.5 17C37.5 17.5132 37.3871 18.0201 37.1694 18.4848C36.9517 18.9494 36.6346 19.3605 36.2404 19.6889C36.2403 19.689 36.2402 19.6891 36.2401 19.6892L30.2452 24.6849C29.8943 24.9805 29.4886 25.2041 29.0513 25.3431C28.611 25.4831 28.1474 25.5345 27.6871 25.4945C27.2269 25.4544 26.7792 25.3236 26.3697 25.1096C25.9603 24.8956 25.5973 24.6027 25.3016 24.2477C25.0059 23.8928 24.7834 23.4828 24.647 23.0414C24.5105 22.6 24.4628 22.136 24.5066 21.6761C24.5503 21.2162 24.6847 20.7695 24.902 20.3618C25.1177 19.957 25.4109 19.5985 25.7648 19.3068L28.5332 17L25.7648 14.6932C25.4254 14.4135 25.1419 14.0724 24.9289 13.6879L19.2897 29.1958C19.2897 29.1959 19.2897 29.1959 19.2896 29.196C19.0441 29.8713 18.5967 30.4546 18.0081 30.8668C17.4199 31.2788 16.7193 31.4998 16.0012 31.5M16.0012 31.5C16.0007 31.5 16.0002 31.5 15.9997 31.5L16 29.5L16.0027 31.5C16.0022 31.5 16.0017 31.5 16.0012 31.5ZM27.497 5.84593C27.5172 6.3052 27.4467 6.76395 27.2896 7.19597L27.497 5.84593ZM27.497 5.84593C27.4768 5.38664 27.3663 4.93585 27.1718 4.51929M27.497 5.84593L27.1718 4.51929M27.1718 4.51929C26.9773 4.10272 26.7027 3.72855 26.3636 3.41813M27.1718 4.51929L26.3636 3.41813M26.3636 3.41813C26.0247 3.10788 25.6279 2.8674 25.1961 2.71042L26.3636 3.41813Z" fill="#82BC4F" stroke="#16181D" stroke-width="4"/>
</svg>
<?xml version="1.0" encoding="utf-8"?>
<svg xmlns="http://www.w3.org/2000/svg" viewBox="651.6062 9.1085 239.9955 192.0025" width="239.995px" height="192.002px">
  <path d="M 712.724 71.261 L 672.104 105.111 L 712.724 138.961 C 717.531 142.81 716.37 150.419 710.633 152.659 C 707.866 153.739 704.728 153.197 702.484 151.251 L 654.484 111.251 C 650.647 108.053 650.647 102.159 654.484 98.961 L 702.484 58.961 C 707.218 55.019 714.444 57.681 715.49 63.752 C 715.975 66.569 714.921 69.432 712.724 71.261 Z M 888.724 98.961 L 840.724 58.961 C 835.99 55.019 828.764 57.681 827.718 63.752 C 827.232 66.569 828.287 69.432 830.484 71.261 L 871.104 105.111 L 830.484 138.961 C 825.676 142.81 826.838 150.419 832.575 152.659 C 835.342 153.739 838.479 153.197 840.724 151.251 L 888.724 111.251 C 892.561 108.053 892.561 102.159 888.724 98.961 Z M 806.334 9.591 C 802.181 8.083 797.591 10.228 796.084 14.381 L 732.084 190.381 C 730.569 194.537 732.715 199.133 736.874 200.641 C 737.75 200.952 738.674 201.111 739.604 201.111 C 742.969 201.111 745.975 199.004 747.124 195.841 L 811.124 19.841 C 812.632 15.688 810.487 11.098 806.334 9.591 Z" style="paint-order: stroke; fill: rgb(130, 188, 79); stroke: rgb(22, 24, 29); stroke-width: 50px;"/>
</svg>